<svg width="240" height="36" viewBox="0 0 240 36" fill="none" xmlns="http://www.w3.org/2000/svg">
<g clip-path="url(#clip0_19_245)">
<path d="M5.82751 20.4573C4.04994 20.4573 2.63429 19.9475 1.58058 18.9278C0.526859 17.9081 0 16.5334 0 14.8036V6.55508C0 4.84348 0.526859 3.47328 1.58058 2.4445C2.63429 1.41572 4.04994 0.901324 5.82751 0.901324C7.58676 0.901324 9.00241 1.41572 10.0744 2.4445C11.1465 3.47328 11.6825 4.84348 11.6825 6.55508V14.8036C11.6825 16.5334 11.1465 17.9081 10.0744 18.9278C9.00241 19.9475 7.58676 20.4573 5.82751 20.4573ZM5.82751 16.5789C6.23067 16.5789 6.54679 16.4378 6.77586 16.1556C7.00493 15.8733 7.11946 15.4864 7.11946 14.9948V6.36389C7.11946 5.87226 7.00493 5.48533 6.77586 5.2031C6.54679 4.92086 6.23067 4.77975 5.82751 4.77975C5.42435 4.77975 5.11282 4.92086 4.89291 5.2031C4.673 5.48533 4.56305 5.87226 4.56305 6.36389V14.9948C4.56305 15.4864 4.673 15.8733 4.89291 16.1556C5.11282 16.4378 5.42435 16.5789 5.82751 16.5789ZM20.9186 5.89957C22.2197 5.89957 23.1818 6.31837 23.8048 7.15597C24.4279 7.99356 24.7394 9.17712 24.7394 10.7066V19.9111C24.7394 20.0021 24.7074 20.0795 24.6432 20.1432C24.5791 20.207 24.5012 20.2388 24.4096 20.2388H20.5062C20.4146 20.2388 20.3367 20.207 20.2726 20.1432C20.2085 20.0795 20.1764 20.0021 20.1764 19.9111V11.0071C20.1764 10.1877 19.8832 9.778 19.2968 9.778C18.9852 9.778 18.747 9.88725 18.5821 10.1058C18.4171 10.3243 18.3347 10.6338 18.3347 11.0344V19.9111C18.3347 20.0021 18.3026 20.0795 18.2385 20.1432C18.1743 20.207 18.0964 20.2388 18.0048 20.2388H14.1015C14.0099 20.2388 13.932 20.207 13.8678 20.1432C13.8037 20.0795 13.7716 20.0021 13.7716 19.9111V6.44583C13.7716 6.35479 13.8037 6.2774 13.8678 6.21367C13.932 6.14994 14.0099 6.11808 14.1015 6.11808H18.0048C18.0964 6.11808 18.1743 6.14994 18.2385 6.21367C18.3026 6.2774 18.3347 6.35479 18.3347 6.44583V6.99209C18.3347 7.02851 18.353 7.04671 18.3896 7.04671C18.4629 7.04671 18.5363 6.99209 18.6096 6.88284C19.1593 6.22733 19.929 5.89957 20.9186 5.89957ZM27.1034 20.2388C27.0118 20.2388 26.9339 20.207 26.8698 20.1432C26.8056 20.0795 26.7736 20.0021 26.7736 19.9111V1.44758C26.7736 1.35654 26.8056 1.27915 26.8698 1.21542C26.9339 1.15169 27.0118 1.11983 27.1034 1.11983H31.0068C31.0984 1.11983 31.1763 1.15169 31.2404 1.21542C31.3045 1.27915 31.3366 1.35654 31.3366 1.44758V19.9111C31.3366 20.0021 31.3045 20.0795 31.2404 20.1432C31.1763 20.207 31.0984 20.2388 31.0068 20.2388H27.1034ZM35.8447 5.18944C35.075 5.18944 34.452 4.95273 33.9755 4.47931C33.499 4.00588 33.2608 3.37769 33.2608 2.59472C33.2608 1.82996 33.499 1.20632 33.9755 0.72379C34.452 0.241263 35.075 0 35.8447 0C36.6144 0 37.2374 0.241263 37.7139 0.72379C38.1904 1.20632 38.4286 1.82996 38.4286 2.59472C38.4286 3.37769 38.1949 4.00588 37.7276 4.47931C37.2603 4.95273 36.6327 5.18944 35.8447 5.18944ZM33.893 20.2388C33.8014 20.2388 33.7235 20.207 33.6594 20.1432C33.5952 20.0795 33.5632 20.0021 33.5632 19.9111V6.44583C33.5632 6.35479 33.5952 6.2774 33.6594 6.21367C33.7235 6.14994 33.8014 6.11808 33.893 6.11808H37.7964C37.888 6.11808 37.9659 6.14994 38.03 6.21367C38.0941 6.2774 38.1262 6.35479 38.1262 6.44583V19.9111C38.1262 20.0021 38.0941 20.0795 38.03 20.1432C37.9659 20.207 37.888 20.2388 37.7964 20.2388H33.893ZM47.5822 5.89957C48.8833 5.89957 49.8454 6.31837 50.4684 7.15597C51.0915 7.99356 51.403 9.17712 51.403 10.7066V19.9111C51.403 20.0021 51.371 20.0795 51.3068 20.1432C51.2427 20.207 51.1648 20.2388 51.0732 20.2388H47.1699C47.0782 20.2388 47.0003 20.207 46.9362 20.1432C46.8721 20.0795 46.84 20.0021 46.84 19.9111V11.0071C46.84 10.1877 46.5468 9.778 45.9604 9.778C45.6488 9.778 45.4106 9.88725 45.2457 10.1058C45.0807 10.3243 44.9983 10.6338 44.9983 11.0344V19.9111C44.9983 20.0021 44.9662 20.0795 44.9021 20.1432C44.8379 20.207 44.7601 20.2388 44.6684 20.2388H40.7651C40.6735 20.2388 40.5956 20.207 40.5314 20.1432C40.4673 20.0795 40.4352 20.0021 40.4352 19.9111V6.44583C40.4352 6.35479 40.4673 6.2774 40.5314 6.21367C40.5956 6.14994 40.6735 6.11808 40.7651 6.11808H44.6684C44.7601 6.11808 44.8379 6.14994 44.9021 6.21367C44.9662 6.2774 44.9983 6.35479 44.9983 6.44583V6.99209C44.9983 7.02851 45.0166 7.04671 45.0533 7.04671C45.1266 7.04671 45.1999 6.99209 45.2732 6.88284C45.8229 6.22733 46.5926 5.89957 47.5822 5.89957ZM64.3775 14.1754C64.3775 14.2664 64.3454 14.3438 64.2813 14.4075C64.2172 14.4713 64.1393 14.5031 64.0477 14.5031H58.0552C57.9636 14.5031 57.9178 14.5486 57.9178 14.6397V15.3771C57.9178 15.7413 58.0048 16.0326 58.1789 16.2511C58.353 16.4696 58.5867 16.5789 58.8799 16.5789C59.1364 16.5789 59.3472 16.4879 59.5121 16.3058C59.677 16.1237 59.787 15.8961 59.8419 15.6229C59.8786 15.3862 59.9977 15.2861 60.1993 15.3225L64.0202 15.8141C64.2217 15.8506 64.3134 15.9689 64.295 16.1692C64.2034 17.5348 63.6995 18.5909 62.7832 19.3375C61.8669 20.084 60.5658 20.4573 58.8799 20.4573C57.1389 20.4573 55.7828 20.0431 54.8116 19.2146C53.8403 18.3861 53.3547 17.2253 53.3547 15.7322V10.6247C53.3547 9.20443 53.8449 8.06184 54.8253 7.19693C55.8058 6.33203 57.1573 5.89957 58.8799 5.89957C60.6025 5.89957 61.9494 6.32748 62.9206 7.18328C63.8919 8.03908 64.3775 9.18622 64.3775 10.6247V14.1754ZM58.8799 9.778C58.5867 9.778 58.353 9.88725 58.1789 10.1058C58.0048 10.3243 57.9178 10.6156 57.9178 10.9798V11.6353C57.9178 11.7263 57.9636 11.7718 58.0552 11.7718H59.677C59.7686 11.7718 59.8145 11.7263 59.8145 11.6353V10.9798C59.8145 10.6338 59.7274 10.347 59.5533 10.1194C59.3792 9.8918 59.1547 9.778 58.8799 9.778ZM71.9918 20.4573C70.2508 20.4573 68.8581 19.9475 67.8135 18.9278C66.769 17.9081 66.2467 16.5516 66.2467 14.8582V6.47315C66.2467 4.76154 66.769 3.405 67.8135 2.40353C68.8581 1.40206 70.2508 0.901324 71.9918 0.901324C73.7327 0.901324 75.13 1.40206 76.1837 2.40353C77.2374 3.405 77.7643 4.76154 77.7643 6.47315V6.71896C77.7643 6.81 77.7322 6.88739 77.6681 6.95112C77.6039 7.01485 77.5261 7.04671 77.4344 7.04671L73.5311 7.21059C73.3112 7.21059 73.2012 7.10134 73.2012 6.88284V6.14539C73.2012 5.72659 73.0913 5.39429 72.8714 5.14847C72.6515 4.90266 72.3583 4.77975 71.9918 4.77975C71.6436 4.77975 71.3595 4.90266 71.1396 5.14847C70.9197 5.39429 70.8098 5.72659 70.8098 6.14539V15.2406C70.8098 15.6412 70.9197 15.9644 71.1396 16.2102C71.3595 16.456 71.6436 16.5789 71.9918 16.5789C72.3583 16.5789 72.6515 16.456 72.8714 16.2102C73.0913 15.9644 73.2012 15.6412 73.2012 15.2406V14.4485C73.2012 14.3575 73.2333 14.2801 73.2974 14.2163C73.3616 14.1526 73.4395 14.1207 73.5311 14.1207L77.4344 14.2846C77.5261 14.2846 77.6039 14.3119 77.6681 14.3666C77.7322 14.4212 77.7643 14.4849 77.7643 14.5577V14.8582C77.7643 16.5516 77.2374 17.9081 76.1837 18.9278C75.13 19.9475 73.7327 20.4573 71.9918 20.4573ZM85.1586 20.4573C83.3811 20.4573 82.0066 20.0431 81.0354 19.2146C80.0641 18.3861 79.5785 17.2253 79.5785 15.7322V10.6247C79.5785 9.18622 80.0733 8.03908 81.0629 7.18328C82.0525 6.32748 83.4177 5.89957 85.1586 5.89957C86.8996 5.89957 88.2556 6.32748 89.2269 7.18328C90.1982 8.03908 90.6838 9.18622 90.6838 10.6247V15.7322C90.6838 17.2253 90.2027 18.3861 89.2406 19.2146C88.2786 20.0431 86.9179 20.4573 85.1586 20.4573ZM85.1586 16.5516C85.4518 16.5516 85.6855 16.4423 85.8596 16.2238C86.0337 16.0053 86.1207 15.7231 86.1207 15.3771V10.9798C86.1207 10.6156 86.0337 10.3243 85.8596 10.1058C85.6855 9.88725 85.4518 9.778 85.1586 9.778C84.8654 9.778 84.6226 9.88725 84.4302 10.1058C84.2378 10.3243 84.1416 10.6156 84.1416 10.9798V15.3771C84.1416 15.7231 84.2332 16.0053 84.4165 16.2238C84.5997 16.4423 84.8471 16.5516 85.1586 16.5516ZM99.0402 6.44583C99.0402 6.35479 99.0723 6.2774 99.1364 6.21367C99.2006 6.14994 99.2784 6.11808 99.3701 6.11808H103.273C103.365 6.11808 103.443 6.14994 103.507 6.21367C103.571 6.2774 103.603 6.35479 103.603 6.44583V19.9111C103.603 20.0021 103.571 20.0795 103.507 20.1432C103.443 20.207 103.365 20.2388 103.273 20.2388H99.3701C99.2784 20.2388 99.2006 20.207 99.1364 20.1432C99.0723 20.0795 99.0402 20.0021 99.0402 19.9111V19.556C99.0402 19.5014 99.0219 19.4695 98.9852 19.4604C98.9486 19.4513 98.9119 19.4741 98.8753 19.5287C98.6004 19.8746 98.266 20.1159 97.872 20.2525C97.478 20.389 97.0152 20.4573 96.4838 20.4573C95.3843 20.4573 94.468 20.1205 93.735 19.4467C93.002 18.773 92.6354 17.7351 92.6354 16.3331V6.44583C92.6354 6.35479 92.6675 6.2774 92.7317 6.21367C92.7958 6.14994 92.8737 6.11808 92.9653 6.11808H96.8686C96.9603 6.11808 97.0381 6.14994 97.1023 6.21367C97.1664 6.2774 97.1985 6.35479 97.1985 6.44583V15.3225C97.1985 16.1419 97.4917 16.5516 98.0781 16.5516C98.3897 16.5516 98.6279 16.4423 98.7928 16.2238C98.9577 16.0053 99.0402 15.6958 99.0402 15.2952V6.44583ZM112.702 5.92689C113.178 5.92689 113.563 6.02703 113.856 6.22733C114.003 6.31837 114.058 6.45494 114.021 6.63702L113.389 10.4881C113.371 10.6884 113.242 10.7613 113.004 10.7066C112.748 10.6338 112.519 10.5974 112.317 10.5974C112.006 10.5974 111.712 10.652 111.437 10.7613C111.108 10.8705 110.837 11.0981 110.627 11.4441C110.416 11.79 110.31 12.1724 110.31 12.5912V19.8838C110.31 19.9748 110.278 20.0522 110.214 20.1159C110.15 20.1796 110.072 20.2115 109.981 20.2115H106.077C105.986 20.2115 105.908 20.1796 105.844 20.1159C105.779 20.0522 105.747 19.9748 105.747 19.8838V6.44583C105.747 6.35479 105.779 6.2774 105.844 6.21367C105.908 6.14994 105.986 6.11808 106.077 6.11808H109.981C110.072 6.11808 110.15 6.14994 110.214 6.21367C110.278 6.2774 110.31 6.35479 110.31 6.44583V7.31984C110.31 7.39268 110.324 7.43365 110.352 7.44275C110.379 7.45186 110.411 7.42909 110.448 7.37447C110.924 6.40941 111.676 5.92689 112.702 5.92689ZM120.701 20.4573C119.033 20.4573 117.705 20.0613 116.715 19.2692C115.726 18.4771 115.231 17.4347 115.231 16.1419V15.978C115.231 15.887 115.263 15.8096 115.327 15.7459C115.391 15.6821 115.469 15.6503 115.561 15.6503H119.244C119.336 15.6503 119.414 15.6685 119.478 15.7049C119.542 15.7413 119.574 15.7868 119.574 15.8415V16.0326C119.574 16.3604 119.688 16.6199 119.918 16.8111C120.147 17.0022 120.399 17.0978 120.673 17.0978C120.93 17.0978 121.132 17.0205 121.278 16.8657C121.425 16.7109 121.498 16.5152 121.498 16.2785C121.498 15.9507 121.342 15.7003 121.031 15.5274C120.719 15.3544 120.224 15.1586 119.546 14.9401L118.942 14.7489C116.578 13.9478 115.396 12.4911 115.396 10.3789C115.396 8.99503 115.863 7.90252 116.798 7.10134C117.732 6.30016 118.978 5.89957 120.536 5.89957C122.13 5.89957 123.404 6.33203 124.357 7.19693C125.31 8.06184 125.786 9.20443 125.786 10.6247C125.786 10.825 125.676 10.9251 125.456 10.9251H121.883C121.791 10.9251 121.713 10.8978 121.649 10.8432C121.585 10.7886 121.553 10.7248 121.553 10.652V10.3789C121.553 10.0875 121.471 9.85539 121.306 9.6824C121.141 9.50942 120.921 9.42293 120.646 9.42293C120.371 9.42293 120.156 9.51853 120 9.70972C119.844 9.90091 119.766 10.124 119.766 10.3789C119.766 10.7795 119.95 11.089 120.316 11.3075C120.683 11.526 121.196 11.7445 121.855 11.963C122.662 12.2362 123.358 12.5229 123.945 12.8234C124.531 13.1238 125.035 13.5517 125.456 14.1071C125.878 14.6624 126.089 15.368 126.089 16.2238C126.089 17.5348 125.598 18.5682 124.618 19.3238C123.638 20.0795 122.332 20.4573 120.701 20.4573ZM138.678 14.1754C138.678 14.2664 138.646 14.3438 138.582 14.4075C138.518 14.4713 138.44 14.5031 138.348 14.5031H132.356C132.264 14.5031 132.219 14.5486 132.219 14.6397V15.3771C132.219 15.7413 132.306 16.0326 132.48 16.2511C132.654 16.4696 132.887 16.5789 133.181 16.5789C133.437 16.5789 133.648 16.4879 133.813 16.3058C133.978 16.1237 134.088 15.8961 134.143 15.6229C134.179 15.3862 134.298 15.2861 134.5 15.3225L138.321 15.8141C138.523 15.8506 138.614 15.9689 138.596 16.1692C138.504 17.5348 138 18.5909 137.084 19.3375C136.168 20.084 134.867 20.4573 133.181 20.4573C131.44 20.4573 130.084 20.0431 129.112 19.2146C128.141 18.3861 127.655 17.2253 127.655 15.7322V10.6247C127.655 9.20443 128.146 8.06184 129.126 7.19693C130.107 6.33203 131.458 5.89957 133.181 5.89957C134.903 5.89957 136.25 6.32748 137.221 7.18328C138.193 8.03908 138.678 9.18622 138.678 10.6247V14.1754ZM133.181 9.778C132.887 9.778 132.654 9.88725 132.48 10.1058C132.306 10.3243 132.219 10.6156 132.219 10.9798V11.6353C132.219 11.7263 132.264 11.7718 132.356 11.7718H133.978C134.069 11.7718 134.115 11.7263 134.115 11.6353V10.9798C134.115 10.6338 134.028 10.347 133.854 10.1194C133.68 9.8918 133.456 9.778 133.181 9.778ZM147.584 1.44758C147.584 1.35654 147.617 1.27915 147.681 1.21542C147.745 1.15169 147.823 1.11983 147.914 1.11983H151.818C151.909 1.11983 151.987 1.15169 152.051 1.21542C152.115 1.27915 152.148 1.35654 152.148 1.44758V19.9111C152.148 20.0021 152.115 20.0795 152.051 20.1432C151.987 20.207 151.909 20.2388 151.818 20.2388H147.914C147.823 20.2388 147.745 20.207 147.681 20.1432C147.617 20.0795 147.584 20.0021 147.584 19.9111V12.7551C147.584 12.6641 147.539 12.6185 147.447 12.6185H145.468C145.376 12.6185 145.33 12.6641 145.33 12.7551V19.9111C145.33 20.0021 145.298 20.0795 145.234 20.1432C145.17 20.207 145.092 20.2388 145.001 20.2388H141.097C141.006 20.2388 140.928 20.207 140.864 20.1432C140.799 20.0795 140.767 20.0021 140.767 19.9111V1.44758C140.767 1.35654 140.799 1.27915 140.864 1.21542C140.928 1.15169 141.006 1.11983 141.097 1.11983H145.001C145.092 1.11983 145.17 1.15169 145.234 1.21542C145.298 1.27915 145.33 1.35654 145.33 1.44758V8.57623C145.33 8.66728 145.376 8.7128 145.468 8.7128H147.447C147.539 8.7128 147.584 8.66728 147.584 8.57623V1.44758ZM159.872 20.4573C158.094 20.4573 156.72 20.0431 155.748 19.2146C154.777 18.3861 154.292 17.2253 154.292 15.7322V10.6247C154.292 9.18622 154.786 8.03908 155.776 7.18328C156.766 6.32748 158.131 5.89957 159.872 5.89957C161.613 5.89957 162.969 6.32748 163.94 7.18328C164.911 8.03908 165.397 9.18622 165.397 10.6247V15.7322C165.397 17.2253 164.916 18.3861 163.954 19.2146C162.992 20.0431 161.631 20.4573 159.872 20.4573ZM159.872 16.5516C160.165 16.5516 160.399 16.4423 160.573 16.2238C160.747 16.0053 160.834 15.7231 160.834 15.3771V10.9798C160.834 10.6156 160.747 10.3243 160.573 10.1058C160.399 9.88725 160.165 9.778 159.872 9.778C159.579 9.778 159.336 9.88725 159.143 10.1058C158.951 10.3243 158.855 10.6156 158.855 10.9798V15.3771C158.855 15.7231 158.946 16.0053 159.13 16.2238C159.313 16.4423 159.56 16.5516 159.872 16.5516ZM172.571 20.4573C170.904 20.4573 169.575 20.0613 168.586 19.2692C167.596 18.4771 167.101 17.4347 167.101 16.1419V15.978C167.101 15.887 167.133 15.8096 167.197 15.7459C167.262 15.6821 167.339 15.6503 167.431 15.6503H171.114C171.206 15.6503 171.284 15.6685 171.348 15.7049C171.412 15.7413 171.444 15.7868 171.444 15.8415V16.0326C171.444 16.3604 171.559 16.6199 171.788 16.8111C172.017 17.0022 172.269 17.0978 172.544 17.0978C172.8 17.0978 173.002 17.0205 173.149 16.8657C173.295 16.7109 173.368 16.5152 173.368 16.2785C173.368 15.9507 173.213 15.7003 172.901 15.5274C172.59 15.3544 172.095 15.1586 171.417 14.9401L170.812 14.7489C168.448 13.9478 167.266 12.4911 167.266 10.3789C167.266 8.99503 167.733 7.90252 168.668 7.10134C169.603 6.30016 170.849 5.89957 172.406 5.89957C174.001 5.89957 175.274 6.33203 176.227 7.19693C177.18 8.06184 177.657 9.20443 177.657 10.6247C177.657 10.825 177.547 10.9251 177.327 10.9251H173.753C173.662 10.9251 173.584 10.8978 173.52 10.8432C173.456 10.7886 173.423 10.7248 173.423 10.652V10.3789C173.423 10.0875 173.341 9.85539 173.176 9.6824C173.011 9.50942 172.791 9.42293 172.516 9.42293C172.241 9.42293 172.026 9.51853 171.87 9.70972C171.715 9.90091 171.637 10.124 171.637 10.3789C171.637 10.7795 171.82 11.089 172.186 11.3075C172.553 11.526 173.066 11.7445 173.726 11.963C174.532 12.2362 175.229 12.5229 175.815 12.8234C176.401 13.1238 176.905 13.5517 177.327 14.1071C177.748 14.6624 177.959 15.368 177.959 16.2238C177.959 17.5348 177.469 18.5682 176.488 19.3238C175.508 20.0795 174.202 20.4573 172.571 20.4573ZM186.673 8.9313C186.673 9.02234 186.641 9.09973 186.577 9.16346C186.512 9.22719 186.435 9.25906 186.343 9.25906H184.941C184.849 9.25906 184.804 9.30458 184.804 9.39562V15.2406C184.804 15.6594 184.891 15.9507 185.065 16.1146C185.239 16.2785 185.5 16.3513 185.848 16.3331H185.986C186.077 16.3331 186.155 16.3649 186.219 16.4287C186.283 16.4924 186.315 16.5698 186.315 16.6608V19.9111C186.315 20.0021 186.283 20.0795 186.219 20.1432C186.155 20.207 186.077 20.2388 185.986 20.2388H184.749C183.319 20.2388 182.243 20.0203 181.519 19.5833C180.795 19.1463 180.433 18.2996 180.433 17.0432V9.39562C180.433 9.30458 180.387 9.25906 180.296 9.25906H179.416C179.324 9.25906 179.246 9.22719 179.182 9.16346C179.118 9.09973 179.086 9.02234 179.086 8.9313V6.44583C179.086 6.35479 179.118 6.2774 179.182 6.21367C179.246 6.14994 179.324 6.11808 179.416 6.11808H180.296C180.387 6.11808 180.433 6.07256 180.433 5.98151V2.94979C180.433 2.85874 180.465 2.78136 180.529 2.71763C180.593 2.6539 180.671 2.62203 180.763 2.62203H184.474C184.565 2.62203 184.643 2.6539 184.707 2.71763C184.772 2.78136 184.804 2.85874 184.804 2.94979V5.98151C184.804 6.07256 184.849 6.11808 184.941 6.11808H186.343C186.435 6.11808 186.512 6.14994 186.577 6.21367C186.641 6.2774 186.673 6.35479 186.673 6.44583V8.9313ZM191.483 20.4027C190.732 20.4027 190.109 20.1478 189.614 19.6379C189.119 19.1281 188.872 18.4999 188.872 17.7534C188.872 17.0432 189.138 16.4332 189.669 15.9234C190.2 15.4136 190.805 15.1586 191.483 15.1586C192.18 15.1586 192.794 15.4136 193.325 15.9234C193.856 16.4332 194.122 17.0432 194.122 17.7534C194.122 18.4999 193.875 19.1281 193.38 19.6379C192.885 20.1478 192.253 20.4027 191.483 20.4027ZM202.314 20.4573C200.573 20.4573 199.217 20.0431 198.245 19.2146C197.274 18.3861 196.788 17.2253 196.788 15.7322V10.6247C196.788 9.20443 197.279 8.06184 198.259 7.19693C199.24 6.33203 200.591 5.89957 202.314 5.89957C204.036 5.89957 205.383 6.32748 206.354 7.18328C207.326 8.03908 207.811 9.15891 207.811 10.5428V11.1436C207.811 11.2347 207.779 11.3121 207.715 11.3758C207.651 11.4395 207.573 11.4714 207.481 11.4714L203.578 11.6353C203.358 11.6353 203.248 11.526 203.248 11.3075V10.8978C203.248 10.5883 203.161 10.3243 202.987 10.1058C202.813 9.88725 202.589 9.778 202.314 9.778C202.02 9.778 201.787 9.88725 201.613 10.1058C201.439 10.3243 201.352 10.6156 201.352 10.9798V15.3771C201.352 15.7413 201.439 16.0326 201.613 16.2511C201.787 16.4696 202.02 16.5789 202.314 16.5789C202.589 16.5789 202.813 16.4696 202.987 16.2511C203.161 16.0326 203.248 15.7595 203.248 15.4318V15.0221C203.248 14.931 203.28 14.8536 203.344 14.7899C203.409 14.7262 203.486 14.6943 203.578 14.6943L207.481 14.7216C207.573 14.7216 207.651 14.7535 207.715 14.8172C207.779 14.8809 207.811 14.9583 207.811 15.0494V15.7868C207.811 17.2617 207.33 18.4089 206.368 19.2282C205.406 20.0476 204.055 20.4573 202.314 20.4573ZM215.151 20.4573C213.373 20.4573 211.999 20.0431 211.027 19.2146C210.056 18.3861 209.571 17.2253 209.571 15.7322V10.6247C209.571 9.18622 210.065 8.03908 211.055 7.18328C212.044 6.32748 213.41 5.89957 215.151 5.89957C216.892 5.89957 218.248 6.32748 219.219 7.18328C220.19 8.03908 220.676 9.18622 220.676 10.6247V15.7322C220.676 17.2253 220.195 18.3861 219.233 19.2146C218.271 20.0431 216.91 20.4573 215.151 20.4573ZM215.151 16.5516C215.444 16.5516 215.677 16.4423 215.852 16.2238C216.026 16.0053 216.113 15.7231 216.113 15.3771V10.9798C216.113 10.6156 216.026 10.3243 215.852 10.1058C215.677 9.88725 215.444 9.778 215.151 9.778C214.857 9.778 214.615 9.88725 214.422 10.1058C214.23 10.3243 214.134 10.6156 214.134 10.9798V15.3771C214.134 15.7231 214.225 16.0053 214.408 16.2238C214.592 16.4423 214.839 16.5516 215.151 16.5516ZM236.179 5.89957C237.48 5.89957 238.442 6.31837 239.065 7.15597C239.688 7.99356 240 9.18622 240 10.7339V19.9111C240 20.0021 239.968 20.0795 239.904 20.1432C239.84 20.207 239.762 20.2388 239.67 20.2388H235.767C235.675 20.2388 235.597 20.207 235.533 20.1432C235.469 20.0795 235.437 20.0021 235.437 19.9111V11.0617C235.437 10.6611 235.359 10.347 235.203 10.1194C235.048 9.8918 234.832 9.778 234.557 9.778C234.264 9.778 234.035 9.88725 233.87 10.1058C233.705 10.3243 233.623 10.6338 233.623 11.0344V19.9111C233.623 20.0021 233.591 20.0795 233.527 20.1432C233.462 20.207 233.385 20.2388 233.293 20.2388H229.39C229.298 20.2388 229.22 20.207 229.156 20.1432C229.092 20.0795 229.06 20.0021 229.06 19.9111V11.0617C229.06 10.6611 228.982 10.347 228.826 10.1194C228.67 9.8918 228.455 9.778 228.18 9.778C227.887 9.778 227.658 9.88725 227.493 10.1058C227.328 10.3243 227.245 10.6338 227.245 11.0344V19.9111C227.245 20.0021 227.213 20.0795 227.149 20.1432C227.085 20.207 227.007 20.2388 226.916 20.2388H223.012C222.921 20.2388 222.843 20.207 222.779 20.1432C222.715 20.0795 222.682 20.0021 222.682 19.9111V6.44583C222.682 6.35479 222.715 6.2774 222.779 6.21367C222.843 6.14994 222.921 6.11808 223.012 6.11808H226.916C227.007 6.11808 227.085 6.14994 227.149 6.21367C227.213 6.2774 227.245 6.35479 227.245 6.44583V6.71896C227.245 6.77359 227.264 6.81 227.3 6.82821C227.337 6.84642 227.374 6.83732 227.41 6.8009C228.052 6.20002 228.849 5.89957 229.802 5.89957C231.25 5.89957 232.285 6.43673 232.908 7.51103L232.963 7.53835C233.036 7.53835 233.11 7.48372 233.183 7.37447C233.861 6.39121 234.86 5.89957 236.179 5.89957Z" fill="#F5F3F4"/>
</g>
<g clip-path="url(#clip1_19_245)">
<path d="M70.2094 33.957C69.5994 33.957 69.1096 33.7733 68.74 33.4061C68.3704 33.0388 68.1855 32.5521 68.1855 31.946V28.2985C68.1855 27.6852 68.3704 27.1985 68.74 26.8384C69.1096 26.4783 69.5994 26.2982 70.2094 26.2982C70.8267 26.2982 71.3219 26.4783 71.6951 26.8384C72.0683 27.1985 72.2549 27.6852 72.2549 28.2985V28.4268C72.2549 28.4625 72.2423 28.4946 72.2172 28.5231C72.1921 28.5516 72.1616 28.5659 72.1257 28.5659L71.1245 28.6087C71.0384 28.6087 70.9953 28.5659 70.9953 28.4803V28.2129C70.9953 27.9633 70.9236 27.7601 70.78 27.6032C70.6365 27.4463 70.4463 27.3679 70.2094 27.3679C69.9798 27.3679 69.7932 27.4463 69.6496 27.6032C69.5061 27.7601 69.4343 27.9633 69.4343 28.2129V32.0423C69.4343 32.2919 69.5061 32.4951 69.6496 32.652C69.7932 32.8089 69.9798 32.8873 70.2094 32.8873C70.4463 32.8873 70.6365 32.8089 70.78 32.652C70.9236 32.4951 70.9953 32.2919 70.9953 32.0423V31.7749C70.9953 31.7392 71.0079 31.7089 71.033 31.6839C71.0581 31.659 71.0886 31.6465 71.1245 31.6465L72.1257 31.6893C72.1616 31.6893 72.1921 31.7018 72.2172 31.7267C72.2423 31.7517 72.2549 31.782 72.2549 31.8176V31.946C72.2549 32.5521 72.0683 33.0388 71.6951 33.4061C71.3219 33.7733 70.8267 33.957 70.2094 33.957ZM75.9367 28.3413C76.1304 28.3413 76.2811 28.3769 76.3888 28.4482C76.4462 28.4839 76.4678 28.5374 76.4534 28.6087L76.2811 29.6035C76.274 29.689 76.2237 29.714 76.1304 29.6783C76.03 29.6498 75.9367 29.6355 75.8505 29.6355C75.7644 29.6355 75.6855 29.6462 75.6137 29.6676C75.4127 29.6962 75.2495 29.8085 75.1239 30.0046C74.9983 30.2007 74.9355 30.4342 74.9355 30.7052V33.743C74.9355 33.7787 74.9229 33.809 74.8978 33.834C74.8727 33.8589 74.8422 33.8714 74.8063 33.8714H73.8159C73.78 33.8714 73.7495 33.8589 73.7244 33.834C73.6992 33.809 73.6867 33.7787 73.6867 33.743V28.5338C73.6867 28.4981 73.6992 28.4678 73.7244 28.4429C73.7495 28.4179 73.78 28.4054 73.8159 28.4054H74.8063C74.8422 28.4054 74.8727 28.4179 74.8978 28.4429C74.9229 28.4678 74.9355 28.4981 74.9355 28.5338V29.0258C74.9355 29.0544 74.9426 29.0704 74.957 29.074C74.9714 29.0775 74.9821 29.0651 74.9893 29.0365C75.1831 28.573 75.4989 28.3413 75.9367 28.3413ZM81.2655 31.4754C81.2655 31.511 81.253 31.5413 81.2279 31.5663C81.2027 31.5912 81.1722 31.6037 81.1364 31.6037H78.7464C78.7105 31.6037 78.6926 31.6215 78.6926 31.6572V32.1278C78.6926 32.356 78.7536 32.5415 78.8756 32.6841C78.9976 32.8267 79.1555 32.898 79.3493 32.898C79.5144 32.898 79.6543 32.8445 79.7691 32.7376C79.884 32.6306 79.9629 32.4951 80.006 32.3311C80.0275 32.2526 80.0742 32.217 80.1459 32.2241L81.1148 32.2883C81.201 32.3026 81.2404 32.3489 81.2332 32.4274C81.1758 32.9123 80.9874 33.2884 80.6681 33.5558C80.3487 33.8233 79.9091 33.957 79.3493 33.957C78.7608 33.957 78.2961 33.8019 77.9552 33.4917C77.6143 33.1815 77.4438 32.7589 77.4438 32.2241V30.0527C77.4438 29.5321 77.6143 29.1132 77.9552 28.7959C78.2961 28.4785 78.7608 28.3199 79.3493 28.3199C79.9378 28.3199 80.4043 28.4785 80.7488 28.7959C81.0933 29.1132 81.2655 29.5321 81.2655 30.0527V31.4754ZM79.3493 29.3895C79.1555 29.3895 78.9976 29.4608 78.8756 29.6035C78.7536 29.7461 78.6926 29.9279 78.6926 30.149V30.6196C78.6926 30.6553 78.7105 30.6731 78.7464 30.6731H79.9629C79.9988 30.6731 80.0168 30.6553 80.0168 30.6196V30.149C80.0168 29.9208 79.9557 29.7372 79.8337 29.5981C79.7117 29.459 79.5503 29.3895 79.3493 29.3895ZM84.5059 28.3199C85.0729 28.3199 85.5322 28.4839 85.8839 28.8119C86.2356 29.1399 86.4114 29.5714 86.4114 30.1062V33.743C86.4114 33.7787 86.3989 33.809 86.3737 33.834C86.3486 33.8589 86.3181 33.8714 86.2822 33.8714H85.2918C85.2559 33.8714 85.2254 33.8589 85.2003 33.834C85.1752 33.809 85.1626 33.7787 85.1626 33.743V33.5505C85.1626 33.5291 85.1555 33.5148 85.1411 33.5077C85.1267 33.5006 85.1124 33.5077 85.098 33.5291C84.8397 33.8143 84.4772 33.957 84.0107 33.957C83.6016 33.957 83.241 33.8411 82.9288 33.6093C82.6166 33.3776 82.4605 32.9551 82.4605 32.3418C82.4605 31.7 82.6489 31.2436 83.0257 30.9726C83.4025 30.7016 83.9138 30.5661 84.5598 30.5661H85.1088C85.1447 30.5661 85.1626 30.5483 85.1626 30.5127V30.2346C85.1626 29.9778 85.098 29.7728 84.9689 29.6195C84.8397 29.4662 84.6782 29.3895 84.4844 29.3895C84.3337 29.3895 84.2081 29.4377 84.1076 29.5339C84.0071 29.6302 83.9461 29.7603 83.9246 29.9244C83.9174 30.0099 83.8708 30.0527 83.7847 30.0527H82.7404C82.6543 30.0527 82.6148 30.0099 82.622 29.9244C82.6579 29.4394 82.8499 29.0508 83.1979 28.7584C83.546 28.466 83.982 28.3199 84.5059 28.3199ZM84.3552 32.9301C84.5705 32.9301 84.7589 32.8623 84.9204 32.7269C85.0819 32.5914 85.1626 32.4024 85.1626 32.1599V31.5502C85.1626 31.5146 85.1447 31.4967 85.1088 31.4967H84.5598C84.3086 31.4967 84.1094 31.5627 83.9623 31.6946C83.8152 31.8266 83.7416 32.0173 83.7416 32.2669C83.7416 32.488 83.799 32.6538 83.9138 32.7643C84.0287 32.8748 84.1758 32.9301 84.3552 32.9301ZM90.1578 29.1542C90.1578 29.1899 90.1452 29.2202 90.1201 29.2451C90.095 29.2701 90.0645 29.2826 90.0286 29.2826H89.3611C89.3253 29.2826 89.3073 29.3004 89.3073 29.336V32.1385C89.3073 32.3881 89.354 32.5611 89.4473 32.6573C89.5406 32.7536 89.6805 32.7982 89.8671 32.791H89.9425C89.9784 32.791 90.0089 32.8035 90.034 32.8285C90.0591 32.8534 90.0717 32.8837 90.0717 32.9194V33.743C90.0717 33.7787 90.0591 33.809 90.034 33.834C90.0089 33.8589 89.9784 33.8714 89.9425 33.8714H89.5765C89.0884 33.8714 88.7206 33.7823 88.473 33.604C88.2254 33.4257 88.1016 33.0905 88.1016 32.5985V29.336C88.1016 29.3004 88.0837 29.2826 88.0478 29.2826H87.671C87.6351 29.2826 87.6046 29.2701 87.5795 29.2451C87.5543 29.2202 87.5418 29.1899 87.5418 29.1542V28.5338C87.5418 28.4981 87.5543 28.4678 87.5795 28.4429C87.6046 28.4179 87.6351 28.4054 87.671 28.4054H88.0478C88.0837 28.4054 88.1016 28.3876 88.1016 28.352V27.1753C88.1016 27.1397 88.1142 27.1094 88.1393 27.0844C88.1644 27.0594 88.1949 27.047 88.2308 27.047H89.1781C89.214 27.047 89.2445 27.0594 89.2696 27.0844C89.2948 27.1094 89.3073 27.1397 89.3073 27.1753V28.352C89.3073 28.3876 89.3253 28.4054 89.3611 28.4054H90.0286C90.0645 28.4054 90.095 28.4179 90.1201 28.4429C90.1452 28.4678 90.1578 28.4981 90.1578 28.5338V29.1542ZM95.1637 31.4754C95.1637 31.511 95.1512 31.5413 95.126 31.5663C95.1009 31.5912 95.0704 31.6037 95.0345 31.6037H92.6446C92.6087 31.6037 92.5908 31.6215 92.5908 31.6572V32.1278C92.5908 32.356 92.6518 32.5415 92.7738 32.6841C92.8958 32.8267 93.0537 32.898 93.2475 32.898C93.4125 32.898 93.5525 32.8445 93.6673 32.7376C93.7822 32.6306 93.8611 32.4951 93.9042 32.3311C93.9257 32.2526 93.9723 32.217 94.0441 32.2241L95.013 32.2883C95.0991 32.3026 95.1386 32.3489 95.1314 32.4274C95.074 32.9123 94.8856 33.2884 94.5662 33.5558C94.2469 33.8233 93.8073 33.957 93.2475 33.957C92.659 33.957 92.1943 33.8019 91.8533 33.4917C91.5124 33.1815 91.342 32.7589 91.342 32.2241V30.0527C91.342 29.5321 91.5124 29.1132 91.8533 28.7959C92.1943 28.4785 92.659 28.3199 93.2475 28.3199C93.836 28.3199 94.3025 28.4785 94.647 28.7959C94.9915 29.1132 95.1637 29.5321 95.1637 30.0527V31.4754ZM93.2475 29.3895C93.0537 29.3895 92.8958 29.4608 92.7738 29.6035C92.6518 29.7461 92.5908 29.9279 92.5908 30.149V30.6196C92.5908 30.6553 92.6087 30.6731 92.6446 30.6731H93.8611C93.897 30.6731 93.9149 30.6553 93.9149 30.6196V30.149C93.9149 29.9208 93.8539 29.7372 93.7319 29.5981C93.6099 29.459 93.4484 29.3895 93.2475 29.3895ZM99.1792 36C99.1362 36 99.1146 35.9572 99.1146 35.8717V35.1015C99.1146 35.0159 99.1326 34.9731 99.1685 34.9731H99.2223C99.4591 34.9731 99.6457 34.9446 99.7821 34.8876C99.9184 34.8305 100.028 34.7253 100.11 34.572C100.193 34.4187 100.252 34.1959 100.288 33.9035L100.277 33.8393L98.9208 28.5445V28.5017C98.9208 28.4375 98.9603 28.4054 99.0393 28.4054H100.094C100.18 28.4054 100.227 28.4447 100.234 28.5231L100.891 32.053C100.898 32.0744 100.909 32.0851 100.923 32.0851C100.938 32.0851 100.948 32.0744 100.956 32.053L101.591 28.5231C101.598 28.4447 101.645 28.4054 101.731 28.4054L102.796 28.4161C102.897 28.4161 102.936 28.4625 102.915 28.5552L101.472 34.1709C101.336 34.6772 101.192 35.0552 101.042 35.3047C100.891 35.5543 100.679 35.7326 100.406 35.8396C100.134 35.9465 99.7462 36 99.2438 36H99.1792ZM105.811 33.957C105.215 33.957 104.747 33.8019 104.406 33.4917C104.065 33.1815 103.894 32.7589 103.894 32.2241V30.0527C103.894 29.5321 104.067 29.1132 104.411 28.7959C104.756 28.4785 105.222 28.3199 105.811 28.3199C106.406 28.3199 106.877 28.4785 107.221 28.7959C107.565 29.1132 107.738 29.5321 107.738 30.0527V32.2241C107.738 32.7589 107.567 33.1815 107.226 33.4917C106.885 33.8019 106.414 33.957 105.811 33.957ZM105.811 32.8873C106.012 32.8873 106.175 32.816 106.301 32.6734C106.426 32.5308 106.489 32.3489 106.489 32.1278V30.149C106.489 29.9279 106.426 29.7461 106.301 29.6035C106.175 29.4608 106.012 29.3895 105.811 29.3895C105.61 29.3895 105.448 29.459 105.326 29.5981C105.204 29.7372 105.143 29.9208 105.143 30.149V32.1278C105.143 32.356 105.204 32.5397 105.326 32.6787C105.448 32.8178 105.61 32.8873 105.811 32.8873ZM111.656 28.5338C111.656 28.4981 111.669 28.4678 111.694 28.4429C111.719 28.4179 111.75 28.4054 111.786 28.4054H112.776C112.812 28.4054 112.842 28.4179 112.867 28.4429C112.893 28.4678 112.905 28.4981 112.905 28.5338V33.743C112.905 33.7787 112.893 33.809 112.867 33.834C112.842 33.8589 112.812 33.8714 112.776 33.8714H111.786C111.75 33.8714 111.719 33.8589 111.694 33.834C111.669 33.809 111.656 33.7787 111.656 33.743V33.5077C111.656 33.4863 111.649 33.4721 111.635 33.4649C111.62 33.4578 111.606 33.4649 111.592 33.4863C111.384 33.793 111.05 33.9463 110.591 33.9463C110.153 33.9463 109.799 33.8161 109.53 33.5558C109.261 33.2956 109.126 32.8944 109.126 32.3525V28.5338C109.126 28.4981 109.139 28.4678 109.164 28.4429C109.189 28.4179 109.22 28.4054 109.256 28.4054H110.246C110.282 28.4054 110.312 28.4179 110.338 28.4429C110.363 28.4678 110.375 28.4981 110.375 28.5338V32.0851C110.375 32.6199 110.583 32.8873 111 32.8873C111.208 32.8873 111.369 32.8106 111.484 32.6573C111.599 32.504 111.656 32.2954 111.656 32.0316V28.5338ZM116.673 28.3413C116.867 28.3413 117.018 28.3769 117.125 28.4482C117.183 28.4839 117.204 28.5374 117.19 28.6087L117.018 29.6035C117.01 29.689 116.96 29.714 116.867 29.6783C116.766 29.6498 116.673 29.6355 116.587 29.6355C116.501 29.6355 116.422 29.6462 116.35 29.6676C116.149 29.6962 115.986 29.8085 115.86 30.0046C115.735 30.2007 115.672 30.4342 115.672 30.7052V33.743C115.672 33.7787 115.659 33.809 115.634 33.834C115.609 33.8589 115.579 33.8714 115.543 33.8714H114.552C114.516 33.8714 114.486 33.8589 114.461 33.834C114.436 33.809 114.423 33.7787 114.423 33.743V28.5338C114.423 28.4981 114.436 28.4678 114.461 28.4429C114.486 28.4179 114.516 28.4054 114.552 28.4054H115.543C115.579 28.4054 115.609 28.4179 115.634 28.4429C115.659 28.4678 115.672 28.4981 115.672 28.5338V29.0258C115.672 29.0544 115.679 29.0704 115.693 29.074C115.708 29.0775 115.719 29.0651 115.726 29.0365C115.919 28.573 116.235 28.3413 116.673 28.3413ZM123.035 33.957C122.418 33.957 121.921 33.7716 121.544 33.4007C121.168 33.0299 120.979 32.5379 120.979 31.9246V28.3306C120.979 27.7173 121.168 27.2252 121.544 26.8544C121.921 26.4836 122.418 26.2982 123.035 26.2982C123.653 26.2982 124.151 26.4836 124.532 26.8544C124.912 27.2252 125.102 27.7173 125.102 28.3306V31.9246C125.102 32.5379 124.912 33.0299 124.532 33.4007C124.151 33.7716 123.653 33.957 123.035 33.957ZM123.035 32.8873C123.279 32.8873 123.477 32.8035 123.628 32.6359C123.778 32.4684 123.854 32.2491 123.854 31.9781V28.2771C123.854 28.0061 123.778 27.7868 123.628 27.6192C123.477 27.4517 123.279 27.3679 123.035 27.3679C122.791 27.3679 122.596 27.4517 122.449 27.6192C122.302 27.7868 122.228 28.0061 122.228 28.2771V31.9781C122.228 32.2491 122.302 32.4684 122.449 32.6359C122.596 32.8035 122.791 32.8873 123.035 32.8873ZM128.946 28.3199C129.412 28.3199 129.766 28.475 130.006 28.7852C130.246 29.0954 130.367 29.5357 130.367 30.1062V33.743C130.367 33.7787 130.354 33.809 130.329 33.834C130.304 33.8589 130.273 33.8714 130.237 33.8714H129.247C129.211 33.8714 129.181 33.8589 129.156 33.834C129.13 33.809 129.118 33.7787 129.118 33.743V30.2025C129.118 29.9457 129.064 29.7461 128.956 29.6035C128.849 29.4608 128.694 29.3895 128.493 29.3895C128.285 29.3895 128.124 29.4644 128.009 29.6141C127.894 29.7639 127.837 29.9707 127.837 30.2346V33.743C127.837 33.7787 127.824 33.809 127.799 33.834C127.774 33.8589 127.743 33.8714 127.708 33.8714H126.717C126.681 33.8714 126.651 33.8589 126.626 33.834C126.601 33.809 126.588 33.7787 126.588 33.743V28.5338C126.588 28.4981 126.601 28.4678 126.626 28.4429C126.651 28.4179 126.681 28.4054 126.717 28.4054H127.708C127.743 28.4054 127.774 28.4179 127.799 28.4429C127.824 28.4678 127.837 28.4981 127.837 28.5338V28.7477C127.837 28.7691 127.846 28.7816 127.864 28.7852C127.882 28.7887 127.901 28.7762 127.923 28.7477C128.167 28.4625 128.508 28.3199 128.946 28.3199ZM131.938 33.8714C131.903 33.8714 131.872 33.8589 131.847 33.834C131.822 33.809 131.809 33.7787 131.809 33.743V26.5121C131.809 26.4765 131.822 26.4462 131.847 26.4212C131.872 26.3963 131.903 26.3838 131.938 26.3838H132.929C132.965 26.3838 132.995 26.3963 133.02 26.4212C133.045 26.4462 133.058 26.4765 133.058 26.5121V33.743C133.058 33.7787 133.045 33.809 133.02 33.834C132.995 33.8589 132.965 33.8714 132.929 33.8714H131.938ZM135.211 27.7209C134.989 27.7209 134.807 27.6495 134.667 27.5069C134.528 27.3643 134.458 27.1789 134.458 26.9507C134.458 26.7225 134.528 26.5371 134.667 26.3945C134.807 26.2519 134.989 26.1805 135.211 26.1805C135.434 26.1805 135.615 26.2519 135.755 26.3945C135.895 26.5371 135.965 26.7225 135.965 26.9507C135.965 27.1789 135.895 27.3643 135.755 27.5069C135.615 27.6495 135.434 27.7209 135.211 27.7209ZM134.716 33.8714C134.68 33.8714 134.65 33.8589 134.624 33.834C134.599 33.809 134.587 33.7787 134.587 33.743V28.5338C134.587 28.4981 134.599 28.4678 134.624 28.4429C134.65 28.4179 134.68 28.4054 134.716 28.4054H135.706C135.742 28.4054 135.773 28.4179 135.798 28.4429C135.823 28.4678 135.836 28.4981 135.836 28.5338V33.743C135.836 33.7787 135.823 33.809 135.798 33.834C135.773 33.8589 135.742 33.8714 135.706 33.8714H134.716ZM139.776 28.3199C140.242 28.3199 140.596 28.475 140.836 28.7852C141.076 29.0954 141.197 29.5357 141.197 30.1062V33.743C141.197 33.7787 141.184 33.809 141.159 33.834C141.134 33.8589 141.103 33.8714 141.068 33.8714H140.077C140.041 33.8714 140.011 33.8589 139.986 33.834C139.96 33.809 139.948 33.7787 139.948 33.743V30.2025C139.948 29.9457 139.894 29.7461 139.786 29.6035C139.679 29.4608 139.524 29.3895 139.324 29.3895C139.115 29.3895 138.954 29.4644 138.839 29.6141C138.724 29.7639 138.667 29.9707 138.667 30.2346V33.743C138.667 33.7787 138.654 33.809 138.629 33.834C138.604 33.8589 138.574 33.8714 138.538 33.8714H137.547C137.511 33.8714 137.481 33.8589 137.456 33.834C137.431 33.809 137.418 33.7787 137.418 33.743V28.5338C137.418 28.4981 137.431 28.4678 137.456 28.4429C137.481 28.4179 137.511 28.4054 137.547 28.4054H138.538C138.574 28.4054 138.604 28.4179 138.629 28.4429C138.654 28.4678 138.667 28.4981 138.667 28.5338V28.7477C138.667 28.7691 138.676 28.7816 138.694 28.7852C138.712 28.7887 138.731 28.7762 138.753 28.7477C138.997 28.4625 139.338 28.3199 139.776 28.3199ZM146.418 31.4754C146.418 31.511 146.405 31.5413 146.38 31.5663C146.355 31.5912 146.325 31.6037 146.289 31.6037H143.899C143.863 31.6037 143.845 31.6215 143.845 31.6572V32.1278C143.845 32.356 143.906 32.5415 144.028 32.6841C144.15 32.8267 144.308 32.898 144.502 32.898C144.667 32.898 144.807 32.8445 144.922 32.7376C145.036 32.6306 145.115 32.4951 145.158 32.3311C145.18 32.2526 145.227 32.217 145.298 32.2241L146.267 32.2883C146.353 32.3026 146.393 32.3489 146.386 32.4274C146.328 32.9123 146.14 33.2884 145.82 33.5558C145.501 33.8233 145.061 33.957 144.502 33.957C143.913 33.957 143.448 33.8019 143.108 33.4917C142.767 33.1815 142.596 32.7589 142.596 32.2241V30.0527C142.596 29.5321 142.767 29.1132 143.108 28.7959C143.448 28.4785 143.913 28.3199 144.502 28.3199C145.09 28.3199 145.557 28.4785 145.901 28.7959C146.246 29.1132 146.418 29.5321 146.418 30.0527V31.4754ZM144.502 29.3895C144.308 29.3895 144.15 29.4608 144.028 29.6035C143.906 29.7461 143.845 29.9279 143.845 30.149V30.6196C143.845 30.6553 143.863 30.6731 143.899 30.6731H145.115C145.151 30.6731 145.169 30.6553 145.169 30.6196V30.149C145.169 29.9208 145.108 29.7372 144.986 29.5981C144.864 29.459 144.703 29.3895 144.502 29.3895ZM152.479 33.957C151.869 33.957 151.379 33.7733 151.009 33.4061C150.64 33.0388 150.455 32.5521 150.455 31.946V28.2985C150.455 27.6852 150.64 27.1985 151.009 26.8384C151.379 26.4783 151.869 26.2982 152.479 26.2982C153.096 26.2982 153.591 26.4783 153.964 26.8384C154.338 27.1985 154.524 27.6852 154.524 28.2985V28.4268C154.524 28.4625 154.512 28.4946 154.487 28.5231C154.461 28.5516 154.431 28.5659 154.395 28.5659L153.394 28.6087C153.308 28.6087 153.265 28.5659 153.265 28.4803V28.2129C153.265 27.9633 153.193 27.7601 153.049 27.6032C152.906 27.4463 152.716 27.3679 152.479 27.3679C152.249 27.3679 152.063 27.4463 151.919 27.6032C151.776 27.7601 151.704 27.9633 151.704 28.2129V32.0423C151.704 32.2919 151.776 32.4951 151.919 32.652C152.063 32.8089 152.249 32.8873 152.479 32.8873C152.716 32.8873 152.906 32.8089 153.049 32.652C153.193 32.4951 153.265 32.2919 153.265 32.0423V31.7749C153.265 31.7392 153.277 31.7089 153.302 31.6839C153.328 31.659 153.358 31.6465 153.394 31.6465L154.395 31.6893C154.431 31.6893 154.461 31.7018 154.487 31.7267C154.512 31.7517 154.524 31.782 154.524 31.8176V31.946C154.524 32.5521 154.338 33.0388 153.964 33.4061C153.591 33.7733 153.096 33.957 152.479 33.957ZM157.711 33.957C157.115 33.957 156.647 33.8019 156.306 33.4917C155.965 33.1815 155.795 32.7589 155.795 32.2241V30.0527C155.795 29.5321 155.967 29.1132 156.311 28.7959C156.656 28.4785 157.122 28.3199 157.711 28.3199C158.307 28.3199 158.777 28.4785 159.121 28.7959C159.466 29.1132 159.638 29.5321 159.638 30.0527V32.2241C159.638 32.7589 159.467 33.1815 159.127 33.4917C158.786 33.8019 158.314 33.957 157.711 33.957ZM157.711 32.8873C157.912 32.8873 158.075 32.816 158.201 32.6734C158.326 32.5308 158.389 32.3489 158.389 32.1278V30.149C158.389 29.9279 158.326 29.7461 158.201 29.6035C158.075 29.4608 157.912 29.3895 157.711 29.3895C157.51 29.3895 157.348 29.459 157.226 29.5981C157.104 29.7372 157.043 29.9208 157.043 30.149V32.1278C157.043 32.356 157.104 32.5397 157.226 32.6787C157.348 32.8178 157.51 32.8873 157.711 32.8873ZM163.556 28.5338C163.556 28.4981 163.569 28.4678 163.594 28.4429C163.619 28.4179 163.65 28.4054 163.686 28.4054H164.676C164.712 28.4054 164.742 28.4179 164.768 28.4429C164.793 28.4678 164.805 28.4981 164.805 28.5338V33.743C164.805 33.7787 164.793 33.809 164.768 33.834C164.742 33.8589 164.712 33.8714 164.676 33.8714H163.686C163.65 33.8714 163.619 33.8589 163.594 33.834C163.569 33.809 163.556 33.7787 163.556 33.743V33.5077C163.556 33.4863 163.549 33.4721 163.535 33.4649C163.521 33.4578 163.506 33.4649 163.492 33.4863C163.284 33.793 162.95 33.9463 162.491 33.9463C162.053 33.9463 161.699 33.8161 161.43 33.5558C161.161 33.2956 161.027 32.8944 161.027 32.3525V28.5338C161.027 28.4981 161.039 28.4678 161.064 28.4429C161.089 28.4179 161.12 28.4054 161.156 28.4054H162.146C162.182 28.4054 162.213 28.4179 162.238 28.4429C162.263 28.4678 162.275 28.4981 162.275 28.5338V32.0851C162.275 32.6199 162.484 32.8873 162.9 32.8873C163.108 32.8873 163.269 32.8106 163.384 32.6573C163.499 32.504 163.556 32.2954 163.556 32.0316V28.5338ZM168.573 28.3413C168.767 28.3413 168.918 28.3769 169.025 28.4482C169.083 28.4839 169.104 28.5374 169.09 28.6087L168.918 29.6035C168.91 29.689 168.86 29.714 168.767 29.6783C168.666 29.6498 168.573 29.6355 168.487 29.6355C168.401 29.6355 168.322 29.6462 168.25 29.6676C168.049 29.6962 167.886 29.8085 167.76 30.0046C167.635 30.2007 167.572 30.4342 167.572 30.7052V33.743C167.572 33.7787 167.559 33.809 167.534 33.834C167.509 33.8589 167.479 33.8714 167.443 33.8714H166.452C166.417 33.8714 166.386 33.8589 166.361 33.834C166.336 33.809 166.323 33.7787 166.323 33.743V28.5338C166.323 28.4981 166.336 28.4678 166.361 28.4429C166.386 28.4179 166.417 28.4054 166.452 28.4054H167.443C167.479 28.4054 167.509 28.4179 167.534 28.4429C167.559 28.4678 167.572 28.4981 167.572 28.5338V29.0258C167.572 29.0544 167.579 29.0704 167.594 29.074C167.608 29.0775 167.619 29.0651 167.626 29.0365C167.82 28.573 168.135 28.3413 168.573 28.3413ZM171.921 33.9356C171.354 33.9356 170.902 33.8001 170.565 33.5291C170.227 33.2581 170.059 32.8909 170.059 32.4274V32.3525C170.059 32.3168 170.071 32.2865 170.096 32.2616C170.122 32.2366 170.152 32.2241 170.188 32.2241H171.114C171.2 32.2241 171.243 32.2526 171.243 32.3097V32.406C171.243 32.5771 171.309 32.7197 171.442 32.8338C171.575 32.9479 171.738 33.005 171.932 33.005C172.119 33.005 172.266 32.9515 172.373 32.8445C172.481 32.7376 172.535 32.6021 172.535 32.438C172.535 32.2954 172.488 32.176 172.395 32.0797C172.302 31.9834 172.201 31.9104 172.093 31.8604C171.986 31.8105 171.792 31.7285 171.512 31.6144C171.103 31.4575 170.768 31.2579 170.506 31.0154C170.244 30.7729 170.113 30.4128 170.113 29.935C170.113 29.4359 170.272 29.0454 170.592 28.7638C170.911 28.4821 171.343 28.3413 171.889 28.3413C172.449 28.3413 172.892 28.4892 173.218 28.7852C173.545 29.0811 173.708 29.4787 173.708 29.9778C173.708 30.0135 173.696 30.0438 173.671 30.0688C173.645 30.0937 173.615 30.1062 173.579 30.1062H172.675C172.639 30.1062 172.608 30.0973 172.583 30.0795C172.558 30.0616 172.546 30.0384 172.546 30.0099V29.9137C172.546 29.7425 172.486 29.5999 172.368 29.4858C172.25 29.3717 172.101 29.3146 171.921 29.3146C171.735 29.3146 171.586 29.3735 171.474 29.4911C171.363 29.6088 171.308 29.7496 171.308 29.9137C171.308 30.0491 171.351 30.1632 171.437 30.2559C171.523 30.3486 171.62 30.4217 171.727 30.4752C171.835 30.5287 172.015 30.6089 172.266 30.7159C172.567 30.8371 172.82 30.9566 173.025 31.0742C173.229 31.1919 173.409 31.3595 173.563 31.577C173.717 31.7945 173.794 32.0637 173.794 32.3846C173.794 32.8623 173.626 33.2403 173.288 33.5184C172.951 33.7965 172.495 33.9356 171.921 33.9356ZM178.79 31.4754C178.79 31.511 178.777 31.5413 178.752 31.5663C178.727 31.5912 178.696 31.6037 178.66 31.6037H176.27C176.235 31.6037 176.217 31.6215 176.217 31.6572V32.1278C176.217 32.356 176.278 32.5415 176.4 32.6841C176.522 32.8267 176.68 32.898 176.873 32.898C177.038 32.898 177.178 32.8445 177.293 32.7376C177.408 32.6306 177.487 32.4951 177.53 32.3311C177.552 32.2526 177.598 32.217 177.67 32.2241L178.639 32.2883C178.725 32.3026 178.764 32.3489 178.757 32.4274C178.7 32.9123 178.511 33.2884 178.192 33.5558C177.873 33.8233 177.433 33.957 176.873 33.957C176.285 33.957 175.82 33.8019 175.479 33.4917C175.138 33.1815 174.968 32.7589 174.968 32.2241V30.0527C174.968 29.5321 175.138 29.1132 175.479 28.7959C175.82 28.4785 176.285 28.3199 176.873 28.3199C177.462 28.3199 177.928 28.4785 178.273 28.7959C178.617 29.1132 178.79 29.5321 178.79 30.0527V31.4754ZM176.873 29.3895C176.68 29.3895 176.522 29.4608 176.4 29.6035C176.278 29.7461 176.217 29.9279 176.217 30.149V30.6196C176.217 30.6553 176.235 30.6731 176.27 30.6731H177.487C177.523 30.6731 177.541 30.6553 177.541 30.6196V30.149C177.541 29.9208 177.48 29.7372 177.358 29.5981C177.236 29.459 177.074 29.3895 176.873 29.3895ZM185.098 28.4054C185.134 28.4054 185.165 28.4179 185.19 28.4429C185.215 28.4678 185.227 28.4981 185.227 28.5338V29.1649C185.227 29.2005 185.215 29.2309 185.19 29.2558C185.165 29.2808 185.134 29.2933 185.098 29.2933H184.431C184.395 29.2933 184.377 29.3111 184.377 29.3467V33.743C184.377 33.7787 184.364 33.809 184.339 33.834C184.314 33.8589 184.284 33.8714 184.248 33.8714H183.268C183.232 33.8714 183.202 33.8589 183.176 33.834C183.151 33.809 183.139 33.7787 183.139 33.743V29.3467C183.139 29.3111 183.121 29.2933 183.085 29.2933H182.74C182.705 29.2933 182.674 29.2808 182.649 29.2558C182.624 29.2309 182.611 29.2005 182.611 29.1649V28.5338C182.611 28.4981 182.624 28.4678 182.649 28.4429C182.674 28.4179 182.705 28.4054 182.74 28.4054H183.085C183.121 28.4054 183.139 28.3876 183.139 28.352V28.0845C183.139 27.4427 183.286 26.9899 183.58 26.7261C183.874 26.4622 184.345 26.3339 184.99 26.341H185.077C185.112 26.341 185.143 26.3535 185.168 26.3784C185.193 26.4034 185.206 26.4337 185.206 26.4694L185.184 27.1967C185.184 27.2823 185.156 27.3251 185.098 27.3251H185.001C184.786 27.3322 184.628 27.4017 184.528 27.5337C184.427 27.6656 184.377 27.867 184.377 28.138V28.352C184.377 28.3876 184.395 28.4054 184.431 28.4054H185.098ZM188.36 33.957C187.764 33.957 187.296 33.8019 186.955 33.4917C186.614 33.1815 186.444 32.7589 186.444 32.2241V30.0527C186.444 29.5321 186.616 29.1132 186.961 28.7959C187.305 28.4785 187.772 28.3199 188.36 28.3199C188.956 28.3199 189.426 28.4785 189.77 28.7959C190.115 29.1132 190.287 29.5321 190.287 30.0527V32.2241C190.287 32.7589 190.117 33.1815 189.776 33.4917C189.435 33.8019 188.963 33.957 188.36 33.957ZM188.36 32.8873C188.561 32.8873 188.724 32.816 188.85 32.6734C188.975 32.5308 189.038 32.3489 189.038 32.1278V30.149C189.038 29.9279 188.975 29.7461 188.85 29.6035C188.724 29.4608 188.561 29.3895 188.36 29.3895C188.159 29.3895 187.998 29.459 187.876 29.5981C187.754 29.7372 187.693 29.9208 187.693 30.149V32.1278C187.693 32.356 187.754 32.5397 187.876 32.6787C187.998 32.8178 188.159 32.8873 188.36 32.8873ZM193.969 28.3413C194.163 28.3413 194.313 28.3769 194.421 28.4482C194.478 28.4839 194.5 28.5374 194.486 28.6087L194.313 29.6035C194.306 29.689 194.256 29.714 194.163 29.6783C194.062 29.6498 193.969 29.6355 193.883 29.6355C193.797 29.6355 193.718 29.6462 193.646 29.6676C193.445 29.6962 193.282 29.8085 193.156 30.0046C193.03 30.2007 192.968 30.4342 192.968 30.7052V33.743C192.968 33.7787 192.955 33.809 192.93 33.834C192.905 33.8589 192.874 33.8714 192.838 33.8714H191.848C191.812 33.8714 191.782 33.8589 191.757 33.834C191.731 33.809 191.719 33.7787 191.719 33.743V28.5338C191.719 28.4981 191.731 28.4678 191.757 28.4429C191.782 28.4179 191.812 28.4054 191.848 28.4054H192.838C192.874 28.4054 192.905 28.4179 192.93 28.4429C192.955 28.4678 192.968 28.4981 192.968 28.5338V29.0258C192.968 29.0544 192.975 29.0704 192.989 29.074C193.004 29.0775 193.014 29.0651 193.021 29.0365C193.215 28.573 193.531 28.3413 193.969 28.3413ZM202.151 27.3251C202.151 27.3607 202.138 27.391 202.113 27.416C202.088 27.441 202.057 27.4534 202.021 27.4534H199.707C199.671 27.4534 199.653 27.4713 199.653 27.5069V29.5286C199.653 29.5642 199.671 29.5821 199.707 29.5821H201.074C201.11 29.5821 201.14 29.5945 201.166 29.6195C201.191 29.6445 201.203 29.6748 201.203 29.7104V30.5341C201.203 30.5697 201.191 30.6 201.166 30.625C201.14 30.6499 201.11 30.6624 201.074 30.6624H199.707C199.671 30.6624 199.653 30.6802 199.653 30.7159V33.743C199.653 33.7787 199.64 33.809 199.615 33.834C199.59 33.8589 199.56 33.8714 199.524 33.8714H198.533C198.497 33.8714 198.467 33.8589 198.442 33.834C198.417 33.809 198.404 33.7787 198.404 33.743V26.5121C198.404 26.4765 198.417 26.4462 198.442 26.4212C198.467 26.3963 198.497 26.3838 198.533 26.3838H202.021C202.057 26.3838 202.088 26.3963 202.113 26.4212C202.138 26.4462 202.151 26.4765 202.151 26.5121V27.3251ZM206.392 33.8714C206.32 33.8714 206.274 33.8357 206.252 33.7644L205.326 30.6838C205.312 30.6553 205.294 30.641 205.273 30.641H204.713C204.677 30.641 204.659 30.6588 204.659 30.6945V33.743C204.659 33.7787 204.646 33.809 204.621 33.834C204.596 33.8589 204.566 33.8714 204.53 33.8714H203.539C203.503 33.8714 203.473 33.8589 203.448 33.834C203.423 33.809 203.41 33.7787 203.41 33.743V26.5014C203.41 26.4658 203.423 26.4355 203.448 26.4105C203.473 26.3856 203.503 26.3731 203.539 26.3731H205.563C205.944 26.3731 206.279 26.464 206.57 26.6458C206.86 26.8277 207.087 27.0844 207.248 27.416C207.409 27.7476 207.49 28.1273 207.49 28.5552C207.49 28.9973 207.404 29.3806 207.232 29.7051C207.06 30.0295 206.819 30.2738 206.511 30.4378C206.482 30.4449 206.471 30.4663 206.478 30.502L207.533 33.7216C207.54 33.7359 207.544 33.7537 207.544 33.7751C207.544 33.8393 207.505 33.8714 207.426 33.8714H206.392ZM204.713 27.4427C204.677 27.4427 204.659 27.4606 204.659 27.4962V29.6248C204.659 29.6605 204.677 29.6783 204.713 29.6783H205.369C205.628 29.6783 205.838 29.5785 205.999 29.3788C206.161 29.1792 206.241 28.9117 206.241 28.5766C206.241 28.2272 206.161 27.9508 205.999 27.7476C205.838 27.5444 205.628 27.4427 205.369 27.4427H204.713ZM212.668 27.3251C212.668 27.3607 212.656 27.391 212.631 27.416C212.606 27.441 212.575 27.4534 212.539 27.4534H210.214C210.178 27.4534 210.16 27.4713 210.16 27.5069V29.5286C210.16 29.5642 210.178 29.5821 210.214 29.5821H211.592C211.628 29.5821 211.658 29.5945 211.683 29.6195C211.708 29.6445 211.721 29.6748 211.721 29.7104V30.5341C211.721 30.5697 211.708 30.6 211.683 30.625C211.658 30.6499 211.628 30.6624 211.592 30.6624H210.214C210.178 30.6624 210.16 30.6802 210.16 30.7159V32.7483C210.16 32.7839 210.178 32.8017 210.214 32.8017H212.539C212.575 32.8017 212.606 32.8142 212.631 32.8392C212.656 32.8641 212.668 32.8944 212.668 32.9301V33.743C212.668 33.7787 212.656 33.809 212.631 33.834C212.606 33.8589 212.575 33.8714 212.539 33.8714H209.04C209.005 33.8714 208.974 33.8589 208.949 33.834C208.924 33.809 208.911 33.7787 208.911 33.743V26.5121C208.911 26.4765 208.924 26.4462 208.949 26.4212C208.974 26.3963 209.005 26.3838 209.04 26.3838H212.539C212.575 26.3838 212.606 26.3963 212.631 26.4212C212.656 26.4462 212.668 26.4765 212.668 26.5121V27.3251ZM217.89 27.3251C217.89 27.3607 217.877 27.391 217.852 27.416C217.827 27.441 217.796 27.4534 217.76 27.4534H215.435C215.399 27.4534 215.381 27.4713 215.381 27.5069V29.5286C215.381 29.5642 215.399 29.5821 215.435 29.5821H216.813C216.849 29.5821 216.879 29.5945 216.905 29.6195C216.93 29.6445 216.942 29.6748 216.942 29.7104V30.5341C216.942 30.5697 216.93 30.6 216.905 30.625C216.879 30.6499 216.849 30.6624 216.813 30.6624H215.435C215.399 30.6624 215.381 30.6802 215.381 30.7159V32.7483C215.381 32.7839 215.399 32.8017 215.435 32.8017H217.76C217.796 32.8017 217.827 32.8142 217.852 32.8392C217.877 32.8641 217.89 32.8944 217.89 32.9301V33.743C217.89 33.7787 217.877 33.809 217.852 33.834C217.827 33.8589 217.796 33.8714 217.76 33.8714H214.262C214.226 33.8714 214.195 33.8589 214.17 33.834C214.145 33.809 214.132 33.7787 214.132 33.743V26.5121C214.132 26.4765 214.145 26.4462 214.17 26.4212C214.195 26.3963 214.226 26.3838 214.262 26.3838H217.76C217.796 26.3838 217.827 26.3963 217.852 26.4212C217.877 26.4462 217.89 26.4765 217.89 26.5121V27.3251Z" fill="#F5F3F4"/>
</g>
<g clip-path="url(#clip2_19_245)">
<path d="M64.3458 26.1805H0V36H64.3458V26.1805Z" fill="#0551C2"/>
</g>
<defs>
<clipPath id="clip0_19_245">
<rect width="240" height="20.4573" fill="white"/>
</clipPath>
<clipPath id="clip1_19_245">
<rect width="149.704" height="9.81947" fill="white" transform="translate(68.1855 26.1805)"/>
</clipPath>
<clipPath id="clip2_19_245">
<rect width="64.3458" height="9.81947" fill="white" transform="translate(0 26.1805)"/>
</clipPath>
</defs>
</svg>
